<?xml version="1.0" encoding="UTF-8" standalone="no"?>
<svg
   xmlns:osb="http://www.openswatchbook.org/uri/2009/osb"
   xmlns:dc="http://purl.org/dc/elements/1.1/"
   xmlns:cc="http://creativecommons.org/ns#"
   xmlns:rdf="http://www.w3.org/1999/02/22-rdf-syntax-ns#"
   xmlns:svg="http://www.w3.org/2000/svg"
   xmlns="http://www.w3.org/2000/svg"
   xmlns:xlink="http://www.w3.org/1999/xlink"
   xmlns:sodipodi="http://sodipodi.sourceforge.net/DTD/sodipodi-0.dtd"
   xmlns:inkscape="http://www.inkscape.org/namespaces/inkscape"
   enable-background="new 0 0 24 24"
   height="24px"
   id="Layer_1"
   version="1.1"
   viewBox="0 0 24 24"
   width="24px"
   xml:space="preserve"
   inkscape:version="0.91 r13725"
   sodipodi:docname="cross.svg"><metadata
     id="metadata9"><rdf:RDF><cc:Work
         rdf:about=""><dc:format>image/svg+xml</dc:format><dc:type
           rdf:resource="http://purl.org/dc/dcmitype/StillImage" /></cc:Work></rdf:RDF></metadata><defs
     id="defs7"><linearGradient
       id="linearGradient4137"
       osb:paint="solid"><stop
         style="stop-color:#a00000;stop-opacity:1;"
         offset="0"
         id="stop4139" /></linearGradient><linearGradient
       inkscape:collect="always"
       xlink:href="#linearGradient4137"
       id="linearGradient4141"
       x1="1.46925"
       y1="11.991062"
       x2="22.47975"
       y2="11.991062"
       gradientUnits="userSpaceOnUse" /></defs><sodipodi:namedview
     pagecolor="#ffffff"
     bordercolor="#666666"
     borderopacity="1"
     objecttolerance="10"
     gridtolerance="10"
     guidetolerance="10"
     inkscape:pageopacity="0"
     inkscape:pageshadow="2"
     inkscape:window-width="981"
     inkscape:window-height="603"
     id="namedview5"
     showgrid="false"
     inkscape:zoom="9.8333333"
     inkscape:cx="12"
     inkscape:cy="12"
     inkscape:window-x="150"
     inkscape:window-y="167"
     inkscape:window-maximized="0"
     inkscape:current-layer="Layer_1" /><path
     d="M22.245,4.015c0.313,0.313,0.313,0.826,0,1.139l-6.276,6.27c-0.313,0.312-0.313,0.826,0,1.14l6.273,6.272  c0.313,0.313,0.313,0.826,0,1.14l-2.285,2.277c-0.314,0.312-0.828,0.312-1.142,0l-6.271-6.271c-0.313-0.313-0.828-0.313-1.141,0  l-6.276,6.267c-0.313,0.313-0.828,0.313-1.141,0l-2.282-2.28c-0.313-0.313-0.313-0.826,0-1.14l6.278-6.269  c0.313-0.312,0.313-0.826,0-1.14L1.709,5.147c-0.314-0.313-0.314-0.827,0-1.14l2.284-2.278C4.308,1.417,4.821,1.417,5.135,1.73  L11.405,8c0.314,0.314,0.828,0.314,1.141,0.001l6.276-6.267c0.312-0.312,0.826-0.312,1.141,0L22.245,4.015z"
     id="path3"
     style="fill-opacity:1;fill:url(#linearGradient4141)" /></svg>