<?xml version="1.0" encoding="UTF-8" standalone="no"?>
<svg
   xmlns:dc="http://purl.org/dc/elements/1.1/"
   xmlns:cc="http://creativecommons.org/ns#"
   xmlns:rdf="http://www.w3.org/1999/02/22-rdf-syntax-ns#"
   xmlns:svg="http://www.w3.org/2000/svg"
   xmlns="http://www.w3.org/2000/svg"
   xmlns:sodipodi="http://sodipodi.sourceforge.net/DTD/sodipodi-0.dtd"
   xmlns:inkscape="http://www.inkscape.org/namespaces/inkscape"
   enable-background="new 0 0 128 128"
   height="128px"
   id="Layer_1"
   version="1.1"
   viewBox="0 0 128 128"
   width="128px"
   xml:space="preserve"
   inkscape:version="0.91 r13725"
   sodipodi:docname="syncpad-icon - Kopie.svg"><metadata
     id="metadata15"><rdf:RDF><cc:Work
         rdf:about=""><dc:format>image/svg+xml</dc:format><dc:type
           rdf:resource="http://purl.org/dc/dcmitype/StillImage" /></cc:Work></rdf:RDF></metadata><defs
     id="defs13" /><sodipodi:namedview
     pagecolor="#ffffff"
     bordercolor="#666666"
     borderopacity="1"
     objecttolerance="10"
     gridtolerance="10"
     guidetolerance="10"
     inkscape:pageopacity="0"
     inkscape:pageshadow="2"
     inkscape:window-width="1280"
     inkscape:window-height="971"
     id="namedview11"
     showgrid="false"
     inkscape:zoom="1.84375"
     inkscape:cx="-24.40678"
     inkscape:cy="64"
     inkscape:window-x="-8"
     inkscape:window-y="22"
     inkscape:window-maximized="1"
     inkscape:current-layer="Layer_1" /><path
     d="M100,99.9v7.9c0,3.3-2.2,6.2-5.5,6.2h-63c-3.3,0-6.5-2.9-6.5-6.2v-89c0-3.3,3.2-5.8,6.5-5.8h63  c3.3,0,5.5,2.5,5.5,5.8v48.9l4-4V18.8c0-5.5-4-9.8-9.5-9.8h-63C26,9,21,13.3,21,18.8v89c0,5.5,5,10.2,10.5,10.2h63  c5.5,0,9.5-4.7,9.5-10.2V95.9L100,99.9z"
     fill="#3B97D3"
     id="path3" /><path
     d="M120.7,70.2c0-0.5-0.2-0.9-0.6-1.2c0,0,0,0,0,0l-5.2-5.2c0,0,0,0,0,0c-0.3-0.3-0.8-0.5-1.3-0.6l-4.9-0.3  c-0.6,0-1.1,0.2-1.5,0.5c0,0,0,0,0,0L82.4,88.2c-0.8,0.8-0.8,2,0,2.8c0.4,0.4,0.9,0.6,1.4,0.6s1-0.2,1.4-0.6l24.2-24.2l3.3,0.2  l4.1,4.1l0.2,3.3L92.8,98.6c-0.8,0.8-0.8,2,0,2.8c0.4,0.4,0.9,0.6,1.4,0.6s1-0.2,1.4-0.6l24.8-24.8c0.4-0.4,0.6-1,0.6-1.5  c0,0,0,0,0,0L120.7,70.2z"
     fill="#2C3E50"
     id="path5"
     style="fill:#8796a5;fill-opacity:1" /><path
     d="M89.4,95.6l23.9-23.9c0.4-0.4,0.4-1,0-1.4s-1-0.4-1.4,0L88,94.2c-0.4,0.4-0.4,1,0,1.4  c0.2,0.2,0.5,0.3,0.7,0.3S89.2,95.8,89.4,95.6z"
     fill="#2C3E50"
     id="path7"
     style="fill:#8696a6;fill-opacity:1" /><path
     d="M89.8,102l-7,1.6l-2.7-2.7l1.7-7c0.3-1.1-0.4-2.2-1.5-2.4c-1.1-0.3-2.2,0.4-2.4,1.5l-3.2,13.7  c-0.3,1.1,0.4,2.2,1.5,2.4c0.2,0,0.3,0.1,0.5,0.1c0.2,0,0.3,0,0.5-0.1c0,0,0,0,0,0l13.7-3.2c1.1-0.3,1.7-1.3,1.5-2.4  C92,102.4,90.9,101.8,89.8,102z"
     fill="#2C3E50"
     id="path9"
     style="fill:#8696a6;fill-opacity:1" /><path
     inkscape:connector-curvature="0"
     style="fill:#3b97d3"
     d="m 62.644065,20.861478 c 13.776017,0 24.969034,11.193014 24.969034,24.969031 0,13.776017 -11.193017,24.96903 -24.969034,24.96903 -13.776017,0 -24.96903,-11.193013 -24.96903,-24.96903 0,-13.776017 11.193013,-24.969031 24.96903,-24.969031 m 0,-2.025885 c -14.9409,0 -26.994915,12.104662 -26.994915,26.994916 0,14.890253 12.104662,26.994915 26.994915,26.994915 14.940901,0 26.994914,-12.104662 26.994914,-26.994915 0,-14.890254 -12.054013,-26.994916 -26.994914,-26.994916 l 0,0 z"
     id="path3-6" /><path
     inkscape:connector-curvature="0"
     style="fill:#8795a5;fill-opacity:1"
     d="m 76.673318,46.33698 9.926831,0 c 0,-0.151941 0,-0.35453 0,-0.506471 0,-0.151942 0,-0.35453 0,-0.506471 l -9.926831,0 c -0.05065,-4.05177 -0.658413,-7.951598 -1.722002,-11.648838 2.27912,-0.658413 4.507593,-1.570061 6.634772,-2.583003 -0.202588,-0.253236 -0.455824,-0.557119 -0.658412,-0.810354 -2.025885,0.962295 -4.102417,1.772649 -6.229596,2.431061 -1.06359,-3.393357 -2.583003,-6.634772 -4.456947,-9.622952 -0.506471,-0.151942 -0.962295,-0.303883 -1.468766,-0.455824 2.076532,3.190768 3.798534,6.634772 4.963418,10.332012 -3.34271,0.911648 -6.888009,1.418119 -10.483954,1.468767 l 0,-12.560486 c -0.151942,0 -0.35453,0 -0.506471,0 -0.151942,0 -0.35453,0 -0.506472,0 l 0,12.560486 c -3.595945,-0.05065 -7.090596,-0.557119 -10.433306,-1.41812 1.164884,-3.69724 2.886886,-7.191891 4.963418,-10.433307 -0.506471,0.151942 -1.012943,0.253236 -1.468767,0.455824 -1.873943,2.988181 -3.393357,6.280243 -4.456946,9.6736 -2.177827,-0.658412 -4.305006,-1.468766 -6.330891,-2.431061 -0.202588,0.253235 -0.455824,0.557118 -0.658412,0.810354 2.127179,1.063589 4.406299,1.92459 6.68542,2.583003 -1.06359,3.69724 -1.671356,7.597068 -1.722003,11.59819 l -10.129424,0 c 0,0.151942 0,0.35453 0,0.506472 0,0.151941 0,0.354529 0,0.506471 l 10.02813,0 c 0.05065,4.305005 0.70906,8.458069 1.975238,12.408544 -2.228473,0.658413 -4.355653,1.468767 -6.432184,2.431062 0.202588,0.253236 0.455824,0.557118 0.709059,0.810354 1.975238,-0.911648 4.001123,-1.671355 6.077655,-2.27912 1.06359,3.140121 2.481709,6.128301 4.203711,8.913893 0.506471,0.151941 0.962295,0.303883 1.468767,0.455824 -1.975238,-2.98818 -3.545299,-6.229596 -4.710183,-9.622953 3.241416,-0.861001 6.634773,-1.316825 10.129424,-1.367472 l 0,11.699485 c 0.151941,0 0.35453,0 0.506471,0 0.151942,0 0.35453,0 0.506471,0 l 0,-11.648838 c 3.545299,0.05065 6.938656,0.506471 10.230719,1.367472 -1.164884,3.393357 -2.734945,6.634773 -4.710182,9.572306 0.506471,-0.151941 1.012942,-0.303883 1.468766,-0.455824 1.722002,-2.785592 3.140122,-5.723125 4.203711,-8.863246 2.076532,0.607765 4.05177,1.367472 5.97636,2.228473 0.253236,-0.253236 0.455824,-0.506471 0.70906,-0.810354 -2.025885,-0.962295 -4.153064,-1.772649 -6.381537,-2.431062 1.266178,-3.849181 1.975238,-8.052892 2.025885,-12.357897 z M 62.137594,57.07417 c -3.595945,0.05065 -7.141243,0.506471 -10.483953,1.418119 C 50.43811,54.643108 49.779697,50.591338 49.72905,46.387627 l 12.408544,0 0,10.686543 z m 0,-11.750132 -12.408544,0 c 0.05065,-3.950476 0.658413,-7.74901 1.671355,-11.344956 3.444004,0.911649 6.989303,1.41812 10.686542,1.468767 l 0,9.876189 z m 1.012942,-9.876189 c 3.747887,-0.05065 7.343833,-0.557118 10.787837,-1.468767 1.06359,3.595946 1.671355,7.445127 1.671355,11.344956 l -12.459192,0 0,-9.876189 z m 10.585249,23.04444 C 70.342428,57.580641 66.797129,57.124817 63.150536,57.07417 l 0,-10.73719 12.661781,0 c -0.05065,4.203711 -0.911649,8.306128 -2.076532,12.155309 z"
     id="path5-9" /></svg>